<?xml version="1.0" encoding="iso-8859-1"?>
<!-- Generator: Adobe Illustrator 22.1.0, SVG Export Plug-In . SVG Version: 6.00 Build 0)  -->
<svg xmlns="http://www.w3.org/2000/svg" xmlns:xlink="http://www.w3.org/1999/xlink" version="1.1" id="Layer_3" x="0px" y="0px" viewBox="0 0 64 64" style="enable-background:new 0 0 64 64;" xml:space="preserve" width="512" height="512">
<g>
	<path d="M62.542,1.159c-0.286-0.184-0.646-0.211-0.955-0.069l-22,10C39.229,11.252,39,11.607,39,12v11.175L21.586,31.09   C21.229,31.252,21,31.607,21,32v22.668C19.545,53.641,17.417,53,15,53c-4.486,0-8,2.196-8,5s3.514,5,8,5s8-2.196,8-5V32.644   l16-7.273v9.297C37.545,33.641,35.417,33,33,33c-4.486,0-8,2.196-8,5s3.514,5,8,5s8-2.196,8-5V24.462l2-0.909v26.115   C41.545,48.641,39.417,48,37,48c-4.486,0-8,2.196-8,5s3.514,5,8,5s8-2.196,8-5V22c0-0.34-0.173-0.656-0.458-0.841   c-0.286-0.184-0.646-0.211-0.955-0.069L41,22.266v-3.622l20-9.091v20.115C59.545,28.641,57.417,28,55,28c-4.486,0-8,2.196-8,5   s3.514,5,8,5s8-2.196,8-5V2C63,1.66,62.827,1.344,62.542,1.159z M15,61c-3.536,0-6-1.581-6-3s2.464-3,6-3s6,1.581,6,3   S18.536,61,15,61z M33,41c-3.536,0-6-1.581-6-3s2.464-3,6-3s6,1.581,6,3S36.536,41,33,41z M37,56c-3.536,0-6-1.581-6-3s2.464-3,6-3   s6,1.581,6,3S40.536,56,37,56z M41,16.447v-3.804l20-9.091v3.804L41,16.447z M55,36c-3.536,0-6-1.581-6-3s2.464-3,6-3s6,1.581,6,3   S58.536,36,55,36z"/>
	<path d="M11,23.075c0,1.1,0.451,2.131,1.271,2.902l5.044,4.75C17.507,30.909,17.753,31,18,31s0.493-0.091,0.686-0.272l5.044-4.75   C24.549,25.206,25,24.175,25,23.075s-0.451-2.131-1.271-2.903c-1.423-1.339-3.668-1.553-5.269-0.541l-0.462,0.241l-0.39-0.202   c-1.668-1.048-3.914-0.839-5.337,0.503C11.451,20.944,11,21.976,11,23.075z M13.642,21.629c0.434-0.409,1.01-0.623,1.605-0.623   c0.463,0,0.938,0.13,1.366,0.396l0.924,0.483c0.29,0.152,0.637,0.152,0.927,0l0.992-0.522c0.912-0.573,2.131-0.46,2.903,0.265   C22.772,22.019,23,22.532,23,23.075s-0.228,1.057-0.642,1.447L18,28.626l-4.358-4.104C13.228,24.132,13,23.618,13,23.075   S13.228,22.019,13.642,21.629z"/>
	<path d="M8,20c0.247,0,0.493-0.091,0.686-0.272l5.044-4.75C14.549,14.206,15,13.175,15,12.075s-0.451-2.131-1.271-2.903   c-1.423-1.339-3.668-1.553-5.269-0.541L7.998,8.872L7.608,8.67C5.939,7.622,3.694,7.831,2.271,9.173C1.451,9.944,1,10.976,1,12.075   s0.451,2.131,1.271,2.902l5.044,4.75C7.507,19.909,7.753,20,8,20z M3,12.075c0-0.543,0.228-1.057,0.642-1.446   c0.434-0.409,1.01-0.623,1.605-0.623c0.463,0,0.938,0.13,1.366,0.396l0.924,0.483c0.29,0.152,0.637,0.152,0.927,0l0.992-0.522   c0.912-0.572,2.131-0.461,2.903,0.265C12.772,11.019,13,11.532,13,12.075s-0.228,1.057-0.642,1.447L8,17.626l-4.358-4.104   C3.228,13.132,3,12.618,3,12.075z"/>
	<path d="M18.13,12.26l3.252,2.529C21.562,14.93,21.779,15,21.996,15s0.434-0.07,0.614-0.211l3.252-2.529   c0.673-0.524,1.086-1.308,1.133-2.151c0.046-0.841-0.276-1.662-0.886-2.255c-1.127-1.096-2.94-1.132-4.114-0.105   c-1.173-1.026-2.986-0.992-4.114,0.105c-0.609,0.593-0.932,1.414-0.885,2.255C17.043,10.952,17.457,11.735,18.13,12.26z    M19.276,9.287c0.199-0.192,0.459-0.289,0.72-0.289s0.521,0.097,0.72,0.289l0.583,0.567c0.388,0.377,1.007,0.377,1.395,0   l0.583-0.567c0.397-0.385,1.043-0.385,1.44,0c0.197,0.191,0.297,0.444,0.283,0.711c-0.015,0.27-0.145,0.512-0.364,0.684   l-2.638,2.052l-2.638-2.052c-0.22-0.172-0.35-0.414-0.365-0.684C18.979,9.731,19.079,9.479,19.276,9.287z"/>
	<path d="M27.13,6.26l3.252,2.529C30.562,8.93,30.779,9,30.996,9s0.434-0.07,0.614-0.211l3.252-2.529   c0.673-0.524,1.086-1.308,1.133-2.151c0.046-0.841-0.276-1.662-0.886-2.255c-1.127-1.096-2.941-1.131-4.114-0.105   c-1.172-1.026-2.986-0.991-4.114,0.105c-0.609,0.593-0.932,1.414-0.885,2.255C26.043,4.952,26.457,5.735,27.13,6.26z M28.276,3.287   c0.199-0.192,0.459-0.289,0.72-0.289s0.521,0.097,0.72,0.289l0.583,0.567c0.388,0.377,1.007,0.377,1.395,0l0.583-0.567   c0.397-0.385,1.043-0.385,1.44,0c0.197,0.191,0.297,0.444,0.283,0.711c-0.015,0.27-0.145,0.512-0.364,0.684l-2.638,2.052   l-2.638-2.052c-0.22-0.172-0.35-0.414-0.365-0.684C27.979,3.731,28.079,3.479,28.276,3.287z"/>
</g>
</svg>
